<?xml version="1.0" encoding="UTF-8" standalone="no"?>
<svg
   width="128"
   height="128"
   color-interpolation="linearRGB"
   version="1.1"
   id="svg251"
   sodipodi:docname="os_haiku.svg"
   inkscape:version="1.1.2 (0a00cf5339, 2022-02-04)"
   xmlns:inkscape="http://www.inkscape.org/namespaces/inkscape"
   xmlns:sodipodi="http://sodipodi.sourceforge.net/DTD/sodipodi-0.dtd"
   xmlns="http://www.w3.org/2000/svg"
   xmlns:svg="http://www.w3.org/2000/svg">
  <defs
     id="defs255">
    <filter
       style="color-interpolation-filters:sRGB;"
       inkscape:label="Lightness-Contrast"
       id="filter477"
       x="-0.0025121703"
       y="-0.0025121703"
       width="1.0050243"
       height="1.0050243">
      <feColorMatrix
         values="1 0 0 1 -0 0 1 0 1 -0 0 0 1 1 -0 0 0 0 1 0"
         id="feColorMatrix475" />
    </filter>
    <filter
       style="color-interpolation-filters:sRGB;"
       inkscape:label="Lightness-Contrast"
       id="filter481"
       x="0"
       y="0"
       width="1"
       height="1">
      <feColorMatrix
         values="1 0 0 1 -0 0 1 0 1 -0 0 0 1 1 -0 0 0 0 1 0"
         id="feColorMatrix479" />
    </filter>
    <filter
       style="color-interpolation-filters:sRGB;"
       inkscape:label="Lightness-Contrast"
       id="filter485"
       x="0"
       y="0"
       width="1"
       height="1">
      <feColorMatrix
         values="1 0 0 1 -0 0 1 0 1 -0 0 0 1 1 -0 0 0 0 1 0"
         id="feColorMatrix483" />
    </filter>
    <filter
       style="color-interpolation-filters:sRGB;"
       inkscape:label="Lightness-Contrast"
       id="filter489"
       x="0"
       y="0"
       width="1"
       height="1">
      <feColorMatrix
         values="1 0 0 1 -0 0 1 0 1 -0 0 0 1 1 -0 0 0 0 1 0"
         id="feColorMatrix487" />
    </filter>
    <filter
       style="color-interpolation-filters:sRGB;"
       inkscape:label="Lightness-Contrast"
       id="filter493"
       x="0"
       y="0"
       width="1"
       height="1">
      <feColorMatrix
         values="1 0 0 1 -0 0 1 0 1 -0 0 0 1 1 -0 0 0 0 1 0"
         id="feColorMatrix491" />
    </filter>
    <filter
       style="color-interpolation-filters:sRGB;"
       inkscape:label="Lightness-Contrast"
       id="filter497"
       x="0"
       y="0"
       width="1"
       height="1">
      <feColorMatrix
         values="1 0 0 1 -0 0 1 0 1 -0 0 0 1 1 -0 0 0 0 1 0"
         id="feColorMatrix495" />
    </filter>
    <filter
       style="color-interpolation-filters:sRGB;"
       inkscape:label="Lightness-Contrast"
       id="filter501"
       x="0"
       y="0"
       width="1"
       height="1">
      <feColorMatrix
         values="1 0 0 1 -0 0 1 0 1 -0 0 0 1 1 -0 0 0 0 1 0"
         id="feColorMatrix499" />
    </filter>
  </defs>
  <sodipodi:namedview
     id="namedview253"
     pagecolor="#ffffff"
     bordercolor="#666666"
     borderopacity="1.0"
     inkscape:pageshadow="2"
     inkscape:pageopacity="0.0"
     inkscape:pagecheckerboard="0"
     showgrid="false"
     inkscape:zoom="5.6171875"
     inkscape:cx="64"
     inkscape:cy="64"
     inkscape:window-width="1414"
     inkscape:window-height="956"
     inkscape:window-x="52"
     inkscape:window-y="41"
     inkscape:window-maximized="0"
     inkscape:current-layer="svg251" />
  <g
     visibility="hidden"
     id="g194"
     style="filter:url(#filter501)">
    <path
       style="fill:#ffffff"
       d="M-16 -23.03v174.07h159.36v-174.07h-159.36z"
       id="path192" />
  </g>
  <g
     id="g206"
     style="filter:url(#filter497)">
    <path
       style="fill:#010000; fill-opacity:0.5882"
       d="M40.33 19.21v75.47h10.21v-75.47h-10.21v0z"
       id="path196" />
    <path
       style="fill:#010000; fill-opacity:0.5882"
       d="M85.13 19.21v75.47h10.21v-75.47h-10.21v0z"
       id="path198" />
    <path
       style="fill:#010000; fill-opacity:0.5882"
       d="M40.31 67.14c9.97 9.39 20.31 12.12 30.5 10.4c-1.67 -1.21 -2.47 -2.69 -3.13 -3.9c11.38 6.38 17.07 -1.57 20.58 -4.12c-1.2 -0.96 -2.68 -0.21 -5.11 -3.11c3.11 0.42 5.13 0.27 7.99 0.25c1.8 -1.64 4.51 -2.93 6.19 -4.88c2.06 -2.4 4.68 -5.68 6.82 -8.41c-1.38 -0.83 -1.65 -1.57 -2.18 -2.6c1.26 0.32 2.53 0.47 3.8 0.45c1.7 -3.16 4.39 -5.15 6.2 -6c-7.53 -2.57 -17.18 -2.22 -24.17 -0.81c-2.33 1.96 -2.26 4.5 -3.01 8.7c-1.46 -1.87 -2.12 -4.23 -1.26 -7.48c-4.92 1.52 -9.7 3.58 -14.32 5.7c-1.79 0.82 -6.19 3.92 -8.75 4.89c-1.22 1.79 -2.24 3.51 -3.07 5.15c-0.05 -1.52 -0.29 -3.01 -0.17 -4.56c-8.45 1.3 -13.07 3.52 -18.35 8.13c-11.29 0.04 -23.95 -4.73 -23.85 -6.44l-0.24 4.03c0 0 14.09 5.26 25.56 4.62v0z"
       id="path200" />
    <path
       style="fill:#010000; fill-opacity:0.5882"
       d="M75.19 98.23c0 0 28.16 -16 69.12 10.88c-33.92 -21.12 -69.12 -10.88 -69.12 -10.88z"
       id="path202" />
    <path
       style="fill:#010000; fill-opacity:0.5882"
       d="M-5.76 110.08c0 0 71.68 -48.64 135.67 21.75c-66.55 -65.91 -135.67 -21.75 -135.67 -21.75z"
       id="path204" />
  </g>
  <g
     id="g212"
     style="filter:url(#filter493)">
    <path
       style="fill:#010000"
       d="M37.13 16.01v75.47h10.21v-75.47h-10.21v0z"
       id="path208" />
    <path
       style="fill:#010000"
       d="M81.93 16.01v75.47h10.21v-75.47h-10.21v0z"
       id="path210" />
  </g>
  <g
     id="g221"
     style="filter:url(#filter489)">
    <radialGradient
       id="gradient0"
       gradientUnits="userSpaceOnUse"
       cx="0"
       cy="0"
       r="200"
       gradientTransform="matrix(0.5938,-0.1865,0.0955,0.1553,58.3523,75.9112)">
      <stop
         offset="1"
         stop-color="#34ac44"
         id="stop214" />
      <stop
         offset="0"
         stop-color="#6fc72f"
         id="stop216" />
    </radialGradient>
    <path
       style="fill:url(#gradient0)"
       d="M37.11 63.94c9.97 9.39 20.31 12.12 30.5 10.4c-1.67 -1.21 -2.47 -2.69 -3.13 -3.9c11.38 6.38 17.07 -1.57 20.58 -4.12c-1.2 -0.96 -2.68 -0.21 -5.11 -3.11c3.11 0.42 5.13 0.27 7.99 0.25c1.8 -1.64 4.51 -2.93 6.19 -4.88c2.06 -2.4 4.68 -5.68 6.82 -8.41c-1.38 -0.83 -1.65 -1.57 -2.18 -2.6c1.26 0.32 2.53 0.47 3.8 0.45c1.7 -3.16 4.39 -5.15 6.2 -6c-7.53 -2.57 -17.18 -2.22 -24.17 -0.81c-2.33 1.96 -2.26 4.5 -3.01 8.7c-1.46 -1.87 -2.12 -4.23 -1.26 -7.48c-4.92 1.52 -9.7 3.58 -14.32 5.7c-1.79 0.82 -6.19 3.92 -8.75 4.89c-1.22 1.79 -2.24 3.51 -3.07 5.15c-0.05 -1.52 -0.29 -3.01 -0.17 -4.56c-8.45 1.3 -13.07 3.52 -18.35 8.13c-11.29 0.04 -23.95 -4.73 -23.85 -6.44l-0.24 4.03c0 0 14.09 5.26 25.56 4.62v0z"
       id="path219" />
  </g>
  <g
     id="g227"
     style="filter:url(#filter485)">
    <path
       style="fill:#f0d012"
       d="M72 95.04c0 0 28.16 -16 69.11 10.87c-33.91 -21.11 -69.11 -10.87 -69.11 -10.87z"
       id="path223" />
    <path
       style="fill:#eb8031"
       d="M-8.96 106.87c0 0 71.68 -48.63 135.68 21.76c-66.55 -65.91 -135.68 -21.76 -135.68 -21.76z"
       id="path225" />
  </g>
  <g
     visibility="hidden"
     id="g245"
     style="filter:url(#filter481)">
    <path
       style="fill:#5b5b5b"
       d="M24.95 112h-8.95v1.91h8.95v-1.91z"
       id="path229" />
    <path
       style="fill:#5b5b5b"
       d="M14.07 105.59v16.63h1.92v-16.63h-1.92z"
       id="path231" />
    <path
       style="fill:#5b5b5b"
       d="M24.95 105.59v16.63h1.92v-16.63h-1.92z"
       id="path233" />
    <path
       style="fill:#5b5b5b"
       d="M42.24 115.19h-8.96l-0.63 1.92h10.24l-0.63 -1.92z"
       id="path235" />
    <path
       style="fill:#5b5b5b"
       d="M37.55 104.72l-7.99 17.49h2.26l5.77 -12.69l5.7 12.69h2.25l-8 -17.49v0z"
       id="path237" />
    <path
       style="fill:#5b5b5b"
       d="M48 105.59v16.63h1.91v-16.63h-1.91z"
       id="path239" />
    <path
       style="fill:#5b5b5b"
       d="M55.03 105.59v16.63h1.92l0.01 -6.8l0.89 -0.85l6.33 7.64h2.81l-7.65 -9.09l7.52 -7.52h-2.72l-7.18 7.25l-0.01 -7.25h-1.92z"
       id="path241" />
    <path
       style="fill:#5b5b5b"
       d="M80 105.59l-0.01 9.49c0 1.63 -0.37 2.91 -1.03 3.82c-0.66 0.9 -1.69 1.36 -3.08 1.36c-1.45 0 -2.49 -0.49 -3.11 -1.49c-0.61 -0.99 -1.08 -2.16 -1.08 -3.5l0.01 -9.67h-1.91l0 10.18c0 1.03 0.21 2.04 0.64 3.03c0.43 0.98 1.1 1.8 2.02 2.45c0.91 0.64 2.05 0.97 3.42 0.99c0.9 0 1.73 -0.15 2.48 -0.47c0.75 -0.31 1.4 -0.76 1.95 -1.35c0.54 -0.58 0.92 -1.28 1.22 -2.09c0.29 -0.8 0.4 -1.69 0.4 -2.65l-0 -10.07h-1.91z"
       id="path243" />
  </g>
  <g
     visibility="hidden"
     id="g249"
     style="filter:url(#filter477)">
    <path
       style="fill:none; stroke:#010000; stroke-width:0.6399"
       d="M-0 -0v127.36h127.36v-127.36h-127.36z"
       id="path247" />
  </g>
</svg>
