<?xml version="1.0" encoding="UTF-8" standalone="no"?>
<!-- Created with Inkscape (http://www.inkscape.org/) -->

<svg
   xmlns:dc="http://purl.org/dc/elements/1.1/"
   xmlns:cc="http://creativecommons.org/ns#"
   xmlns:rdf="http://www.w3.org/1999/02/22-rdf-syntax-ns#"
   xmlns:svg="http://www.w3.org/2000/svg"
   xmlns="http://www.w3.org/2000/svg"
   xmlns:sodipodi="http://sodipodi.sourceforge.net/DTD/sodipodi-0.dtd"
   xmlns:inkscape="http://www.inkscape.org/namespaces/inkscape"
   width="744.09448819"
   height="1052.3622047"
   id="svg2"
   version="1.1"
   inkscape:version="0.48.2 r9819"
   sodipodi:docname="refind.svg"
   inkscape:export-filename="/Users/erikkemperman/refind.png"
   inkscape:export-xdpi="149.96837"
   inkscape:export-ydpi="149.96837">
  <defs
     id="defs4">
    <linearGradient
       id="linearGradient5189">
      <stop
         style="stop-color:#000000;stop-opacity:1;"
         offset="0"
         id="stop5191" />
      <stop
         style="stop-color:#000000;stop-opacity:0;"
         offset="1"
         id="stop5193" />
    </linearGradient>
    <marker
       inkscape:stockid="Arrow1Send"
       orient="auto"
       refY="0.0"
       refX="0.0"
       id="Arrow1Send"
       style="overflow:visible;">
      <path
         id="path4038"
         d="M 0.0,0.0 L 5.0,-5.0 L -12.5,0.0 L 5.0,5.0 L 0.0,0.0 z "
         style="fill-rule:evenodd;stroke:#000000;stroke-width:1.0pt;marker-start:none;"
         transform="scale(0.2) rotate(180) translate(6,0)" />
    </marker>
    <marker
       style="overflow:visible"
       inkscape:stockid="InfiniteLineStart"
       id="InfiniteLineStart"
       refX="0"
       refY="0"
       orient="auto">
      <g
         id="g4268"
         transform="translate(-13,0)">
        <circle
           d="M 3.8,0 C 3.8,0.44182781 3.4418278,0.80000001 3,0.80000001 2.5581722,0.80000001 2.2,0.44182781 2.2,0 c 0,-0.44182781 0.3581722,-0.80000001 0.8,-0.80000001 0.4418278,0 0.8,0.3581722 0.8,0.80000001 z"
           id="circle4270"
           r="0.8"
           cy="0"
           cx="3" />
        <circle
           d="M 7.3,0 C 7.3,0.44182781 6.9418278,0.80000001 6.5,0.80000001 6.0581722,0.80000001 5.7,0.44182781 5.7,0 c 0,-0.44182781 0.3581722,-0.80000001 0.8,-0.80000001 0.4418278,0 0.8,0.3581722 0.8,0.80000001 z"
           id="circle4272"
           r="0.8"
           cy="0"
           cx="6.5" />
        <circle
           d="M 10.8,0 C 10.8,0.44182781 10.441828,0.80000001 10,0.80000001 9.5581722,0.80000001 9.2,0.44182781 9.2,0 c 0,-0.44182781 0.3581722,-0.80000001 0.8,-0.80000001 0.441828,0 0.8,0.3581722 0.8,0.80000001 z"
           id="circle4274"
           r="0.8"
           cy="0"
           cx="10" />
      </g>
    </marker>
    <marker
       inkscape:stockid="TriangleOutS"
       orient="auto"
       refY="0.0"
       refX="0.0"
       id="TriangleOutS"
       style="overflow:visible">
      <path
         id="path3908"
         d="M 5.77,0.0 L -2.88,5.0 L -2.88,-5.0 L 5.77,0.0 z "
         style="fill-rule:evenodd;stroke:#000000;stroke-width:1.0pt;marker-start:none"
         transform="scale(0.2)" />
    </marker>
    <filter
       id="filter5203"
       inkscape:label="Relief print"
       inkscape:menu="Bumps"
       inkscape:menu-tooltip="Bumps effect with a bevel, color flood and complex lighting"
       color-interpolation-filters="sRGB">
      <feGaussianBlur
         id="feGaussianBlur5205"
         stdDeviation="5"
         result="result8" />
      <feComposite
         id="feComposite5207"
         in2="result8"
         result="result6"
         in="SourceGraphic"
         operator="in" />
      <feComposite
         id="feComposite5209"
         in2="result6"
         operator="in"
         result="result11" />
      <feFlood
         id="feFlood5211"
         result="result10"
         in="result11"
         flood-opacity="1"
         flood-color="rgb(255,255,255)" />
      <feBlend
         id="feBlend5213"
         in2="result11"
         mode="multiply"
         in="result10"
         result="result12" />
      <feComposite
         id="feComposite5215"
         in2="SourceGraphic"
         result="fbSourceGraphic"
         operator="in"
         in="result12" />
      <feFlood
         id="feFlood5217"
         result="result6"
         flood-color="rgb(75,101,154)"
         in="fbSourceGraphic" />
      <feComposite
         id="feComposite5219"
         in2="result6"
         k3="0.3"
         k2="0.3"
         k1="0.5"
         operator="arithmetic"
         result="result2"
         in="fbSourceGraphic" />
      <feColorMatrix
         id="feColorMatrix5221"
         result="fbSourceGraphicAlpha"
         in="result2"
         values="1 0 0 -1 0 1 0 1 -1 0 1 0 0 -1 0 -0.8 -1 0 3.9 -2.7 "
         type="matrix" />
      <feGaussianBlur
         id="feGaussianBlur5223"
         result="result0"
         in="fbSourceGraphicAlpha"
         stdDeviation="0.5" />
      <feDiffuseLighting
         id="feDiffuseLighting5225"
         lighting-color="rgb(255,255,255)"
         diffuseConstant="0.7"
         surfaceScale="50"
         result="result13"
         in="result0">
        <feDistantLight
           id="feDistantLight5227"
           elevation="20"
           azimuth="225" />
      </feDiffuseLighting>
      <feSpecularLighting
         id="feSpecularLighting5229"
         specularExponent="20"
         specularConstant="0.7"
         surfaceScale="10"
         lighting-color="rgb(255,255,255)"
         result="result1"
         in="result0">
        <feDistantLight
           id="feDistantLight5231"
           elevation="45"
           azimuth="225" />
      </feSpecularLighting>
      <feBlend
         id="feBlend5233"
         in2="SourceGraphic"
         mode="screen"
         result="result5"
         in="result13" />
      <feComposite
         id="feComposite5235"
         in2="result5"
         in="result1"
         k3="1"
         k2="1"
         operator="arithmetic"
         result="result9" />
      <feComposite
         id="feComposite5237"
         in2="SourceGraphic"
         operator="in" />
    </filter>
  </defs>
  <sodipodi:namedview
     id="base"
     pagecolor="#ffffff"
     bordercolor="#666666"
     borderopacity="1.0"
     inkscape:pageopacity="0.0"
     inkscape:pageshadow="2"
     inkscape:zoom="0.49497475"
     inkscape:cx="363.92167"
     inkscape:cy="579.31792"
     inkscape:document-units="px"
     inkscape:current-layer="layer1"
     showgrid="false"
     inkscape:window-width="1235"
     inkscape:window-height="825"
     inkscape:window-x="79"
     inkscape:window-y="4"
     inkscape:window-maximized="0" />
  <metadata
     id="metadata7">
    <rdf:RDF>
      <cc:Work
         rdf:about="">
        <dc:format>image/svg+xml</dc:format>
        <dc:type
           rdf:resource="http://purl.org/dc/dcmitype/StillImage" />
        <dc:title></dc:title>
      </cc:Work>
    </rdf:RDF>
  </metadata>
  <g
     inkscape:label="Layer 1"
     inkscape:groupmode="layer"
     id="layer1">
    <g
       id="g5197"
       style="filter:url(#filter5203)">
      <g
         style="stroke:#000000;stroke-opacity:1"
         id="g5185">
        <path
           style="fill:none;stroke:#000000;stroke-width:122.41708374000002379;stroke-linecap:round;stroke-linejoin:miter;stroke-miterlimit:4;stroke-opacity:1;stroke-dasharray:none;marker-end:none"
           d="m 639.08453,440.52756 c -3.56478,17.42062 -8.82227,34.22465 -15.59312,50.23273 -6.77084,16.00808 -15.05504,31.2202 -24.67325,45.45703 -9.61822,14.23683 -20.57044,27.49836 -32.67731,39.60523 -12.10687,12.10687 -25.3684,23.05909 -39.60523,32.6773 -14.23683,9.61822 -29.44895,17.90242 -45.45703,24.67326 -16.00808,6.77085 -32.81211,12.02834 -50.23273,15.59312 -17.42062,3.56477 -35.45784,5.43684 -53.93231,5.43684 -18.47447,0 -36.51169,-1.87207 -53.93231,-5.43684 -17.42062,-3.56478 -34.22465,-8.82227 -50.23273,-15.59312 -16.00807,-6.77084 -31.2202,-15.05504 -45.45703,-24.67326 -14.23683,-9.61821 -27.49835,-20.57043 -39.60522,-32.6773 -12.10688,-12.10687 -23.05909,-25.3684 -32.67731,-39.60523 -9.6182,-14.23683 -17.90241,-29.44895 -24.67326,-45.45703 -6.77085,-16.00808 -12.02833,-32.81211 -15.5931,-50.23273 -3.56478,-17.42062 -5.43685,-35.45785 -5.43685,-53.93231 0,-18.47446 1.87207,-36.51169 5.43685,-53.93231 3.56477,-17.42062 8.82225,-34.22465 15.5931,-50.23273 6.77085,-16.00807 15.05506,-31.2202 24.67326,-45.45703 9.61822,-14.23683 20.57043,-27.49835 32.67731,-39.60522 12.10687,-12.10688 25.36839,-23.0591 39.60522,-32.6773 14.23683,-9.61821 29.44896,-17.90242 45.45703,-24.67327 16.00808,-6.77084 32.81211,-12.02833 50.23273,-15.59311 17.42062,-3.56477 35.45784,-5.43684 53.93231,-5.43684 18.47447,0 36.51169,1.87207 53.93231,5.43684 17.42062,3.56478 34.22465,8.82227 50.23273,15.59311 16.00808,6.77085 31.2202,15.05506 45.45703,24.67327 14.23683,9.6182 27.49836,20.57042 39.60523,32.6773 12.10687,12.10687 1.5e-4,0.002 12.09811,12.08757"
           id="path2985"
           inkscape:connector-curvature="0"
           sodipodi:nodetypes="csssssssssssssssssssssssssssc" />
        <path
           style="fill:none;stroke:#000000;stroke-width:122.41708374000002379;stroke-linecap:round;stroke-linejoin:miter;stroke-miterlimit:4;stroke-opacity:1;stroke-dasharray:none;marker-end:none"
           d="M 481.09422,633.19723 617.47075,936.30224"
           id="path4570"
           inkscape:connector-curvature="0"
           sodipodi:nodetypes="cc" />
      </g>
      <path
         sodipodi:nodetypes="cccc"
         inkscape:connector-curvature="0"
         id="rect4852"
         d="m 472.35714,280.54413 201.30255,-151.28104 -0.0205,209.54514 z"
         style="fill:#000000;fill-opacity:1;stroke:none" />
    </g>
  </g>
</svg>
