<?xml version="1.0" encoding="UTF-8" standalone="no"?>
<svg
   xmlns:dc="http://purl.org/dc/elements/1.1/"
   xmlns:cc="http://creativecommons.org/ns#"
   xmlns:rdf="http://www.w3.org/1999/02/22-rdf-syntax-ns#"
   xmlns:svg="http://www.w3.org/2000/svg"
   xmlns="http://www.w3.org/2000/svg"
   xmlns:sodipodi="http://sodipodi.sourceforge.net/DTD/sodipodi-0.dtd"
   xmlns:inkscape="http://www.inkscape.org/namespaces/inkscape"
   height="108.76"
   viewBox="0 0 108.758 108.76226"
   width="108.76"
   id="svg11843"
   version="1.1"
   inkscape:version="0.48.4 r9939"
   sodipodi:docname="os_debian-02-bare.svg">
  <metadata
     id="metadata11887">
    <rdf:RDF>
      <cc:Work
         rdf:about="">
        <dc:format>image/svg+xml</dc:format>
        <dc:type
           rdf:resource="http://purl.org/dc/dcmitype/StillImage" />
        <dc:title></dc:title>
      </cc:Work>
    </rdf:RDF>
  </metadata>
  <defs
     id="defs11885">
    <filter
       id="filter11922"
       style="color-interpolation-filters:sRGB;"
       inkscape:label="Drop Shadow">
      <feFlood
         id="feFlood11924"
         flood-opacity="0.7"
         flood-color="rgb(0,0,0)"
         result="flood" />
      <feComposite
         id="feComposite11926"
         in2="SourceGraphic"
         in="flood"
         operator="in"
         result="composite1" />
      <feGaussianBlur
         id="feGaussianBlur11928"
         in="composite"
         stdDeviation="3"
         result="blur" />
      <feOffset
         id="feOffset11930"
         dx="2"
         dy="2"
         result="offset" />
      <feComposite
         id="feComposite11932"
         in2="offset"
         in="SourceGraphic"
         operator="over"
         result="composite2" />
    </filter>
  </defs>
  <sodipodi:namedview
     pagecolor="#ffffff"
     bordercolor="#666666"
     borderopacity="1"
     objecttolerance="10"
     gridtolerance="10"
     guidetolerance="10"
     inkscape:pageopacity="0"
     inkscape:pageshadow="2"
     inkscape:window-width="955"
     inkscape:window-height="882"
     id="namedview11883"
     showgrid="false"
     inkscape:zoom="3.2748212"
     inkscape:cx="54.380001"
     inkscape:cy="72.065002"
     inkscape:window-x="205"
     inkscape:window-y="51"
     inkscape:window-maximized="0"
     inkscape:current-layer="svg11843" />
  <g
     id="g11889"
     transform="translate(0.48298776,44.66387)"
     style="filter:url(#filter11922)">
    <path
       style="fill:#d70751"
       inkscape:connector-curvature="0"
       id="path11845"
       d="m 60.969,12.27426 c -1.494,0.02 0.281,0.768 2.232,1.069 0.541,-0.422 1.027,-0.846 1.463,-1.26 -1.213,0.297 -2.449,0.304 -3.695,0.191" />
    <path
       style="fill:#d70751"
       inkscape:connector-curvature="0"
       id="path11847"
       d="m 68.986,10.27526 c 0.893,-1.2289999 1.541,-2.5729999 1.77,-3.9629999 -0.201,0.99 -0.736,1.845 -1.244,2.749 -2.793,1.7589999 -0.264,-1.044 -0.002,-2.111 -3.002,3.7829999 -0.414,2.268 -0.524,3.3249999" />
    <path
       style="fill:#d70751"
       inkscape:connector-curvature="0"
       id="path11849"
       d="m 71.949,2.5712601 c 0.182,-2.69099999 -0.529,-1.83899999 -0.768,-0.814 0.278,0.146 0.499,1.898 0.768,0.814" />
    <path
       style="fill:#d70751"
       inkscape:connector-curvature="0"
       id="path11851"
       d="m 55.301,-34.20774 c 0.798,0.142 1.724,0.252 1.591,0.443 0.876,-0.193 1.073,-0.367 -1.591,-0.443" />
    <path
       style="fill:#d70751"
       inkscape:connector-curvature="0"
       id="path11853"
       d="m 56.893,-33.76474 -0.561,0.117 0.523,-0.048 0.038,-0.069" />
    <path
       style="fill:#d70751"
       inkscape:connector-curvature="0"
       id="path11855"
       d="m 81.762,3.5912601 c 0.09,2.416 -0.705,3.59 -1.424,5.666 l -1.293,0.643 C 77.988,11.95426 79.15,11.20426 78.393,12.83726 c -1.652,1.467 -5.006,4.589 -6.08,4.875 -0.785,-0.017 0.531,-0.926 0.703,-1.281 -2.209,1.516 -1.773,2.276 -5.152,3.199 l -0.098,-0.221 c -8.33,3.92 -19.902,-3.847 -19.75,-14.4429999 -0.088,0.672 -0.253,0.504 -0.437,0.774 -0.43,-5.45099999 2.518,-10.926 7.49,-13.165 4.863,-2.406 10.564,-1.42 14.045,1.829 -1.912,-2.506 -5.721,-5.1630001 -10.232,-4.9170001 -4.421,0.072 -8.558,2.8810001 -9.938,5.9320001 -2.264,1.425 -2.528,5.49600001 -3.514,6.242 -1.329,9.7599999 2.497,13.9749999 8.97,18.9359999 1.016,0.686 0.286,0.791 0.422,1.313 -2.15,-1.006 -4.118,-2.526 -5.738,-4.387 0.86,1.257 1.787,2.479 2.986,3.439 -2.029,-0.685 -4.738,-4.913 -5.527,-5.085 3.495,6.258 14.178,10.975 19.775,8.634 -2.59,0.096 -5.879,0.053 -8.787,-1.022 -1.225,-0.629 -2.884,-1.93 -2.587,-2.173 7.636,2.851 15.522,2.158 22.128,-3.137 1.682,-1.31 3.518,-3.537 4.049,-3.567 -0.799,1.202 0.137,0.578 -0.477,1.639 1.672,-2.701 -0.729,-1.1 1.73,-4.664 l 0.908,1.25 c -0.34,-2.244 2.785,-4.9659999 2.467,-8.5119999 0.717,-1.084 0.799,1.168 0.039,3.662 1.055,-2.767 0.279,-3.212 0.549,-5.496 0.291,0.768 0.678,1.583 0.875,2.394 -0.688,-2.675 0.703,-4.50299999 1.049,-6.058 -0.342,-0.15 -1.061,1.18200001 -1.227,-1.976 0.025,-1.372 0.383,-0.719 0.52,-1.057 -0.268,-0.155 -0.975,-1.207 -1.404,-3.224 0.309,-0.475 0.832,1.229 1.256,1.298 -0.273,-1.603 -0.742,-2.826 -0.762,-4.0570001 -1.24,-2.59 -0.439,0.3460001 -1.443,-1.112 -1.32,-4.114 1.094,-0.955 1.258,-2.823 1.998,2.895 3.137,7.3850001 3.662,9.2440001 -0.4,-2.267 -1.045,-4.464 -1.834,-6.5890001 0.609,0.257 -0.979,-4.663 0.791,-1.405 -1.889,-6.945 -8.078,-13.435 -13.773,-16.479 0.695,0.637 1.574,1.437 1.26,1.563 -2.834,-1.685 -2.336,-1.818 -2.742,-2.53 -2.305,-0.939 -2.459,0.077 -3.984,0.002 -4.35,-2.308 -5.188,-2.063 -9.191,-3.507 l 0.182,0.852 c -2.881,-0.96 -3.357,0.362 -6.47,0.002 -0.189,-0.147 0.998,-0.536 1.976,-0.677 -2.786,0.368 -2.656,-0.55 -5.382,0.101 0.671,-0.471 1.383,-0.784 2.099,-1.184 -2.271,0.138 -5.424,1.322 -4.451,0.244 -3.705,1.654 -10.286,3.975 -13.979,7.438 l -0.116,-0.776 c -1.692,2.031 -7.379,6.066 -7.832,8.699 l -0.453,0.105 c -0.879,1.491 -1.45,3.18 -2.148,4.713 -1.151,1.963 -1.688,0.756 -1.524,1.064 -2.265,4.5920001 -3.392,8.4500001 -4.363,11.6160001 0.692,1.03500001 0.017,6.232 0.278,10.391 C 17.329,29.30726 32.883,49.25226 49.885,53.85626 c 2.492,0.893 6.197,0.861 9.349,0.949 -3.718,-1.064 -4.198,-0.563 -7.822,-1.826 -2.613,-1.232 -3.185,-2.637 -5.037,-4.244 l 0.733,1.295 c -3.63,-1.285 -2.111,-1.59 -5.065,-2.525 l 0.783,-1.021 c -1.177,-0.09 -3.117,-1.982 -3.647,-3.033 l -1.288,0.051 c -1.546,-1.906 -2.371,-3.283 -2.31,-4.35 l -0.416,0.742 c -0.471,-0.809 -5.691,-7.158 -2.983,-5.68 -0.503,-0.458 -1.172,-0.747 -1.897,-2.066 l 0.551,-0.629 c -1.301,-1.677 -2.398,-3.826 -2.314,-4.542 0.695,0.938 1.177,1.114 1.655,1.275 -3.291,-8.164 -3.476,-0.449 -5.967,-8.31 l 0.526,-0.042 c -0.403,-0.611 -0.65,-1.27 -0.974,-1.919 l 0.23,-2.285 C 21.624,12.96026 23.33,4.0512601 23.673,-0.83373989 23.908,-2.8197399 25.65,-4.9347399 26.973,-8.2517399 l -0.806,-0.138 C 27.709,-11.07774 34.969,-19.18874 38.333,-18.77274 c 1.629,-2.046 -0.324,-0.008 -0.643,-0.522 3.579,-3.703 4.704,-2.616 7.119,-3.283 2.603,-1.545 -2.235,0.604 -1.001,-0.589 4.503,-1.149 3.19,-2.614 9.063,-3.197 0.62,0.352 -1.437,0.544 -1.953,1.001 3.75,-1.836 11.869,-1.417 17.145,1.018 6.117,2.861 12.994,11.314 13.266,19.2670001 l 0.309,0.083 c -0.156,3.162 0.484,6.819 -0.627,10.177 l 0.751,-1.591" />
    <path
       style="fill:#d70751"
       inkscape:connector-curvature="0"
       id="path11857"
       d="m 44.658,14.32426 -0.211,1.047 c 0.983,1.335 1.763,2.781 3.016,3.821 -0.902,-1.759 -1.571,-2.486 -2.805,-4.868" />
    <path
       style="fill:#d70751"
       inkscape:connector-curvature="0"
       id="path11859"
       d="m 46.979,14.23426 c -0.52,-0.576 -0.826,-1.268 -1.172,-1.956 0.33,1.211 1.006,2.252 1.633,3.312 l -0.461,-1.356" />
    <path
       style="fill:#d70751"
       inkscape:connector-curvature="0"
       id="path11861"
       d="m 88.063,5.3042601 -0.219,0.552 c -0.402,2.858 -1.273,5.6859999 -2.605,8.3089999 1.472,-2.767 2.421,-5.7939999 2.824,-8.8609999" />
    <path
       style="fill:#d70751"
       inkscape:connector-curvature="0"
       id="path11863"
       d="m 55.598,-34.92474 c 1.009,-0.369 2.482,-0.203 3.556,-0.446 -1.398,0.117 -2.789,0.187 -4.162,0.362 l 0.606,0.084" />
    <path
       style="fill:#d70751"
       inkscape:connector-curvature="0"
       id="path11865"
       d="m 20.127,-16.06274 c 0.233,2.154 -1.62,2.991 0.41,1.569 1.09,-2.454 -0.424,-0.677 -0.41,-1.569" />
    <path
       style="fill:#d70751"
       inkscape:connector-curvature="0"
       id="path11867"
       d="m 17.739,-6.0887399 c 0.469,-1.437 0.553,-2.299 0.732,-3.132 -1.293,1.654 -0.596,2.007 -0.732,3.132" />
  </g>
</svg>
