<?xml version="1.0" encoding="UTF-8" standalone="no"?>
<!-- Created with Inkscape (http://www.inkscape.org/) -->

<svg
   xmlns:dc="http://purl.org/dc/elements/1.1/"
   xmlns:cc="http://creativecommons.org/ns#"
   xmlns:rdf="http://www.w3.org/1999/02/22-rdf-syntax-ns#"
   xmlns:svg="http://www.w3.org/2000/svg"
   xmlns="http://www.w3.org/2000/svg"
   xmlns:sodipodi="http://sodipodi.sourceforge.net/DTD/sodipodi-0.dtd"
   xmlns:inkscape="http://www.inkscape.org/namespaces/inkscape"
   width="128"
   height="128"
   id="svg2"
   version="1.1"
   inkscape:version="0.48.4 r9939"
   sodipodi:docname="os_haiku-01-basic.svg">
  <defs
     id="defs4">
    <filter
       id="filter5665"
       style="color-interpolation-filters:sRGB;"
       inkscape:label="Drop Shadow">
      <feFlood
         id="feFlood5667"
         flood-opacity="0.7"
         flood-color="rgb(0,0,0)"
         result="flood" />
      <feComposite
         id="feComposite5669"
         in2="SourceGraphic"
         in="flood"
         operator="in"
         result="composite1" />
      <feGaussianBlur
         id="feGaussianBlur5671"
         in="composite"
         stdDeviation="3"
         result="blur" />
      <feOffset
         id="feOffset5673"
         dx="3"
         dy="3"
         result="offset" />
      <feComposite
         id="feComposite5675"
         in2="offset"
         in="SourceGraphic"
         operator="over"
         result="composite2" />
    </filter>
  </defs>
  <sodipodi:namedview
     id="base"
     pagecolor="#ffffff"
     bordercolor="#666666"
     borderopacity="1.0"
     inkscape:pageopacity="0.0"
     inkscape:pageshadow="2"
     inkscape:zoom="3.959798"
     inkscape:cx="58.819443"
     inkscape:cy="72.789643"
     inkscape:document-units="px"
     inkscape:current-layer="layer1"
     showgrid="false"
     inkscape:window-width="1046"
     inkscape:window-height="839"
     inkscape:window-x="385"
     inkscape:window-y="93"
     inkscape:window-maximized="0" />
  <metadata
     id="metadata7">
    <rdf:RDF>
      <cc:Work
         rdf:about="">
        <dc:format>image/svg+xml</dc:format>
        <dc:type
           rdf:resource="http://purl.org/dc/dcmitype/StillImage" />
        <dc:title></dc:title>
      </cc:Work>
    </rdf:RDF>
  </metadata>
  <g
     inkscape:label="Layer 1"
     inkscape:groupmode="layer"
     id="layer1"
     transform="translate(0,-924.36218)">
    <g
       id="g5651"
       style="filter:url(#filter5665)">
      <rect
         ry="0"
         y="934.38153"
         x="18.497774"
         height="107.96134"
         width="18.56284"
         id="rect3013"
         style="fill:#000000;fill-opacity:1;stroke:#000000;stroke-width:2.13513446;stroke-opacity:1" />
      <rect
         ry="0"
         y="934.38153"
         x="90.449203"
         height="107.96134"
         width="18.56284"
         id="rect3013-8"
         style="fill:#000000;fill-opacity:1;stroke:#000000;stroke-width:2.13513446;stroke-opacity:1" />
      <g
         id="g5595"
         transform="matrix(1.5227283,0,0,1.4525208,-36.649015,996.88746)">
        <path
           style="fill:#008000;fill-opacity:1;stroke:#00ff00;stroke-width:0.18181819;stroke-opacity:1"
           d="M 59.061107,5.390994 C 56.032698,5.04526 52.779267,3.974574 48.954696,2.065031 c -1.6,-0.798851 -3.236364,-1.640695 -3.636364,-1.870762 -0.4,-0.230068 -1.35219,-0.765373 -2.115977,-1.189566 -1.343771,-0.746307 -4.480725,-3.072643 -6.825044,-5.061392 -0.627174,-0.532048 -1.490197,-1.145274 -1.917829,-1.362724 -0.427632,-0.217451 -1.227513,-0.694631 -1.777513,-1.060401 -0.996154,-0.662478 -2.73167,-1.396504 -4.44841,-1.881428 l -0.902954,-0.255056 1.551288,-0.125871 c 0.858283,-0.06964 2.480011,-0.03535 3.630228,0.07676 1.321809,0.128836 2.514687,0.144118 3.275425,0.04196 1.1718,-0.157358 2.16715,-0.0093 2.16715,0.322391 0,0.08773 0.593182,0.60444 1.318182,1.148243 1.848965,1.386859 2.300325,1.858668 2.698216,2.820463 0.951305,2.299519 2.466262,5.277485 2.68921,5.286207 0.457696,0.01791 0.09994,-1.079084 -1.269142,-3.891595 -1.431701,-2.941144 -1.984086,-3.680898 -3.554633,-4.760365 l -1.021152,-0.701857 1.796933,-0.115007 c 2.696728,-0.172597 6.437152,-0.169271 7.193193,0.0064 1.19474,0.277598 3.387782,1.82652 4.717097,3.331633 1.423705,1.611989 2.216354,3.062064 2.692485,4.925646 0.183504,0.718232 0.496826,1.678018 0.696271,2.132856 0.199444,0.454838 0.419911,1.166038 0.489924,1.580442 0.142463,0.843231 0.541825,1.313262 0.852149,1.002938 0.204023,-0.204024 0.143569,-0.450404 -0.702953,-2.864904 -0.24542,-0.7 -0.601122,-1.873234 -0.790451,-2.607188 -0.189329,-0.733955 -0.646358,-1.831813 -1.015622,-2.439687 -1.023183,-1.684341 -2.854872,-3.677022 -4.068551,-4.426147 -0.596636,-0.368265 -1.084792,-0.705573 -1.084792,-0.749573 0,-0.044 0.838636,-0.06202 1.863636,-0.04006 1.025,0.02197 5.177273,-0.05609 9.227273,-0.173473 12.409778,-0.359667 20.650645,-0.07672 22.306218,0.765887 0.28158,0.143309 1.534691,0.476889 2.784691,0.741288 1.804682,0.381724 2.918631,0.495887 5.409091,0.55435 2.963467,0.06957 3.136363,0.05497 3.136363,-0.264746 0,-0.411604 -0.50965,-0.490386 -4,-0.618318 -2.136743,-0.07832 -5.258878,-0.576972 -5.571812,-0.889906 -0.04949,-0.04949 0.678087,-0.453814 1.616832,-0.898502 1.593913,-0.755044 5.779899,-3.341728 6.009775,-3.713674 0.05667,-0.09169 0.0337,-0.278894 -0.05105,-0.416012 -0.128726,-0.208283 -0.28894,-0.197801 -0.973682,0.0637 -0.450782,0.172155 -0.924773,0.439732 -1.053316,0.594617 -0.559493,0.674149 -4.095057,2.622234 -6.18786,3.409494 -0.946722,0.356133 -1.172633,0.372208 -2.816026,0.200381 -1.508634,-0.157737 -1.796809,-0.239142 -1.851478,-0.523018 -0.05817,-0.302075 -0.196816,-0.325265 -1.365793,-0.22845 -0.715574,0.05926 -2.814681,0.15555 -4.664681,0.213968 l -3.363637,0.106214 1.363637,-0.610257 c 3.210724,-1.436862 10.854088,-6.193882 11.845855,-7.37253 l 0.479833,-0.57025 1.428065,0.549318 c 3.455257,1.329095 8.889478,4.386869 11.207651,6.306415 3.437927,2.846752 4.091155,3.339032 5.201935,3.920232 0.66016,0.345424 1.97757,0.893615 2.92757,1.218204 0.95,0.324588 1.79369,0.648054 1.87487,0.718814 0.0812,0.07076 -0.57336,0.352386 -1.45454,0.625838 -2.45482,0.761791 -2.95591,0.961494 -4.32942,1.725453 -2.565695,1.42706 -5.666586,2.979405 -6.818182,3.413268 -0.65,0.244888 -2,0.801149 -3,1.236139 -1.696535,0.737974 -3.754109,1.497516 -9.363636,3.45653 C 78.61888,3.85284 74.121174,4.828149 70.146934,5.320549 66.64338,5.754631 62.478156,5.7811 59.061107,5.390999 l 0,0 z M 74.406696,0.736405 c -0.06488,-0.225 -0.499936,-0.963793 -0.966798,-1.641762 -0.46686,-0.677969 -1.356456,-2.027969 -1.976878,-3 -1.752188,-2.745198 -2.486298,-3.474953 -5.049958,-5.019986 -2.360724,-1.42273 -2.824197,-1.620138 -2.951402,-1.257102 -0.09582,0.273466 1.048154,1.110739 3.015351,2.206928 1.781698,0.992824 2.774507,2.014505 4.202794,4.325016 2.185398,3.535275 4.147171,5.844468 3.726891,4.386906 l 0,0 z m 13.002546,-1.311627 c 0,-1.112724 -1.564031,-4.26759 -3.224931,-6.505129 -1.707469,-2.300277 -2.432724,-3.04688 -2.959757,-3.04688 -0.516014,0 -0.460634,0.623401 0.07715,0.868431 0.240853,0.10974 0.704913,0.593328 1.031244,1.074639 0.326331,0.481312 0.908284,1.25673 1.293231,1.723153 0.98068,1.188247 1.853542,2.686741 2.510338,4.309648 0.308898,0.763271 0.638056,1.571856 0.731464,1.796856 0.253694,0.611105 0.541262,0.49384 0.541262,-0.220718 z m -46.074837,-9.505634 c -0.198618,-0.198618 -0.334814,0.117247 -0.192214,0.445783 0.135213,0.311521 0.145015,0.311237 0.220352,-0.0064 0.04336,-0.182827 0.0307,-0.380554 -0.02814,-0.439394 l 0,0 z"
           id="path4170"
           inkscape:connector-curvature="0" />
        <path
           style="fill:#008000;fill-opacity:1;stroke:#00ff00;stroke-width:0.18181819;stroke-opacity:1"
           d="m 41.59106,-11.84972 c 0.65,-0.227648 1.662453,-0.628671 2.249896,-0.891163 0.587443,-0.262491 1.144432,-0.477257 1.237754,-0.477257 0.497801,0 5.540233,-2.320874 6.819612,-3.138855 3.51424,-2.246854 6.428603,-4.377528 6.5277,-4.772363 0.0851,-0.339073 0.331296,-0.454774 1.497081,-0.703569 2.709028,-0.578143 7.240819,-1.205369 9.486139,-1.312936 3.457158,-0.165623 8.480292,0.639879 12.046936,1.931827 l 1.592389,0.576812 -0.865116,0.687804 c -1.202948,0.956392 -4.642651,3.217234 -7.13312,4.688444 -1.754971,1.036726 -5.698313,2.942432 -6.641089,3.209452 -0.687202,0.194635 -2.538522,0.273313 -7.58498,0.322347 l -6.67589,0.06487 2.145691,-1.095097 c 2.242491,-1.144501 3.108279,-1.736851 6.115179,-4.183851 1,-0.813795 2.227272,-1.754891 2.727272,-2.091324 0.5,-0.336433 1.448269,-1.067638 2.107264,-1.6249 0.658994,-0.557262 1.43578,-1.185307 1.726191,-1.395654 0.457165,-0.331132 0.495213,-0.421978 0.283538,-0.67703 -0.220265,-0.265403 -0.29688,-0.267482 -0.77354,-0.02099 -0.290984,0.150473 -1.080482,0.744098 -1.754438,1.319167 -0.673958,0.575068 -1.839015,1.486999 -2.589015,2.026513 -0.75,0.539513 -2.018182,1.523536 -2.818182,2.186716 -2.155045,1.78648 -3.309515,2.609881 -4.727272,3.371627 -0.7,0.376103 -1.354546,0.746625 -1.454546,0.823383 -0.1,0.07676 -0.877272,0.448571 -1.727272,0.82625 l -1.545455,0.686689 -5.727273,0.0385 -5.727272,0.0385 1.181818,-0.413905 z"
           id="path4172"
           inkscape:connector-curvature="0" />
        <path
           style="fill:#008000;fill-opacity:1;stroke:#00ff00;stroke-width:0.18181819;stroke-opacity:1"
           d="m 33.045605,-12.097808 c 0.65,-0.283815 1.960732,-1.005365 2.912737,-1.603447 0.952006,-0.598081 2.22897,-1.340511 2.837698,-1.649845 1.648048,-0.837477 6.539528,-2.524729 9.431383,-3.25323 1.4,-0.352681 3.922829,-1.050875 5.606286,-1.551542 1.683458,-0.500667 3.099238,-0.871897 3.146178,-0.824955 0.04694,0.04694 -0.512251,0.48015 -1.242649,0.962687 -0.730398,0.482537 -1.87362,1.264074 -2.540493,1.736749 -2.823289,2.001124 -6.379281,3.664004 -12.311293,5.7571 l -2.47621,0.873725 -3.272728,0.03439 -3.272727,0.03439 1.181818,-0.516025 z"
           id="path4174"
           inkscape:connector-curvature="0" />
        <rect
           style="fill:#00ff00;fill-opacity:1;stroke:#00ff00;stroke-width:0.08757018;stroke-miterlimit:4;stroke-opacity:1;stroke-dasharray:none"
           id="rect5503"
           width="1.6991364"
           height="0.2251936"
           x="62.280296"
           y="-5.7272224"
           transform="matrix(0.96515405,-0.26168235,0.56031449,0.82827995,0,0)" />
        <rect
           style="fill:#00ff00;fill-opacity:1;stroke:#00ff00;stroke-width:0.06770154;stroke-miterlimit:4;stroke-opacity:1;stroke-dasharray:none"
           id="rect5505"
           width="2.414537"
           height="0.12001605"
           x="31.512844"
           y="1.2065728"
           transform="matrix(0.92723443,-0.3744814,0.63994083,0.76842419,0,0)"
           inkscape:transform-center-x="0.15096165"
           inkscape:transform-center-y="-0.17817299" />
        <rect
           style="fill:#00ff00;fill-opacity:1;stroke:#00ff00;stroke-width:0.1;stroke-miterlimit:4;stroke-opacity:1;stroke-dasharray:none"
           id="rect5507"
           width="2.4772727"
           height="0.13636364"
           x="68.015884"
           y="-50.667591"
           transform="matrix(0.92504555,0.3798562,-0.3798562,0.92504555,0,0)" />
        <path
           style="fill:#00ff00;fill-opacity:1;stroke:#00ff00;stroke-width:0.00909091;stroke-miterlimit:4;stroke-opacity:1;stroke-dasharray:none"
           d="m 56.823725,2.178412 c -0.08288,-0.126493 -0.230548,-0.541705 -0.328148,-0.922695 -0.0976,-0.380989 -0.336518,-1.128899 -0.530928,-1.662021 -0.194411,-0.533122 -0.516852,-1.506514 -0.716536,-2.163093 -0.522149,-1.71687 -1.126028,-2.86106 -2.211731,-4.19065 -0.995737,-1.219412 -2.310157,-2.364181 -3.632188,-3.163384 -1.163956,-0.703641 -1.48942,-0.780821 -3.532272,-0.837637 -1.665786,-0.04633 -6.043356,0.101428 -6.981719,0.235656 l -0.425126,0.06081 0.998877,0.694997 c 1.111434,0.773312 1.952985,1.58766 2.442332,2.363383 0.830283,1.316181 2.625994,5.165336 2.739756,5.872738 l 0.05463,0.339684 -0.234536,-0.363636 c -0.370237,-0.574032 -1.339802,-2.512678 -1.989946,-3.978897 -0.860852,-1.941411 -0.888766,-1.974578 -3.213066,-3.817596 -0.60984,-0.483564 -1.151572,-0.959125 -1.203847,-1.056804 -0.17358,-0.324335 -0.611404,-0.382886 -2.654665,-0.355011 -1.067978,0.01457 -2.595832,-0.009 -3.395232,-0.05228 l -1.453453,-0.07877 0.675404,-0.268018 0.675405,-0.268019 3.278049,-0.05013 3.278049,-0.05013 1.181818,-0.408246 c 5.064949,-1.749634 8.948521,-3.394726 11.552352,-4.893608 0.784148,-0.451391 4.018752,-2.615749 5.356739,-3.584335 0.25,-0.180978 0.638636,-0.380754 0.863636,-0.443946 0.225,-0.06319 0.490588,-0.138643 0.590197,-0.167667 0.162505,-0.04735 0.16773,-0.03666 0.05087,0.104153 -0.348695,0.420152 -3.049181,2.368433 -5.363157,3.869281 -1.811101,1.174683 -6.023405,3.228747 -7.516952,3.665524 -0.256474,0.075 -1.279201,0.463218 -2.272728,0.862696 -0.993526,0.399479 -1.980274,0.777805 -2.192774,0.840725 -0.2125,0.06292 -0.386364,0.170716 -0.386364,0.239546 0,0.105223 0.929772,0.121022 5.840909,0.09925 l 5.840909,-0.0259 1.494316,-0.703777 c 3.000254,-1.41303 4.767103,-2.521937 7.505684,-4.710706 0.95,-0.759273 2.361364,-1.859666 3.136364,-2.445318 0.775,-0.585652 1.997561,-1.53925 2.716803,-2.119107 1.533343,-1.236192 2.012962,-1.525825 2.229333,-1.346253 0.07963,0.06608 0.144773,0.148982 0.144773,0.184221 0,0.08762 -3.157774,2.614189 -4.5,3.600493 -0.6,0.440897 -1.786364,1.358591 -2.636364,2.039321 -2.88965,2.314202 -3.713898,2.864982 -6.261222,4.183887 -0.981328,0.508093 -1.784232,0.958776 -1.784232,1.00152 0,0.04274 0.03916,0.101916 0.08702,0.131494 0.136939,0.08463 12.212196,-0.125558 13.276621,-0.231102 1.183466,-0.117348 1.817848,-0.357088 4.681818,-1.769304 3.011445,-1.484935 7.23438,-4.080244 9.930197,-6.102847 0.880213,-0.660402 1.046415,-0.752564 1.204545,-0.667936 0.100892,0.054 0.18344,0.132046 0.18344,0.173445 0,0.0414 -0.194318,0.256349 -0.431818,0.477668 -1.627329,1.516456 -7.318146,5.056694 -11.134161,6.926525 -1.073319,0.525921 -1.885109,0.976881 -1.886363,1.047901 -0.0024,0.137874 0.303646,0.131101 6.129563,-0.135637 2.915009,-0.133463 3.092693,-0.132581 3.201267,0.0159 0.06323,0.08647 0.127877,0.195973 0.143669,0.243351 0.09311,0.279338 3.065143,0.618265 3.883162,0.442832 1.420985,-0.304747 5.651842,-2.469773 6.958318,-3.56073 0.479673,-0.400546 1.256855,-0.789926 1.661331,-0.832353 0.299688,-0.03144 0.38919,0.244001 0.142111,0.437337 -0.969346,0.758498 -3.687131,2.405136 -5.803442,3.516159 -0.9,0.472483 -1.648779,0.922003 -1.663951,0.998934 -0.07901,0.400601 2.723189,0.889344 6.118496,1.067153 2.921607,0.153001 3.544989,0.252581 3.368532,0.538095 -0.142428,0.230454 -5.137873,0.04073 -7.038758,-0.267323 -1.298976,-0.210511 -3.390354,-0.716782 -4.073767,-0.986157 -1.097964,-0.432777 -3.674254,-0.690883 -8.346916,-0.836235 -3.445943,-0.107191 -6.848791,-0.07583 -16,0.147441 -2.95,0.07198 -6.253409,0.131123 -7.340909,0.131439 -1.0875,2.72e-4 -1.977273,0.03379 -1.977273,0.07439 0,0.08471 0.323772,0.332272 1.227273,0.938405 0.853901,0.572859 1.612925,1.273698 2.474383,2.284702 1.449081,1.700639 2.142621,2.939272 2.658818,4.748535 0.15692,0.55 0.547454,1.797727 0.867855,2.772727 0.320402,0.975 0.594419,1.891164 0.608928,2.035919 0.03433,0.342555 -0.148556,0.401197 -0.339999,0.109019 l 0,0 z"
           id="path5519"
           inkscape:connector-curvature="0" />
        <path
           style="fill:#00ff00;fill-opacity:1;stroke:#00ff00;stroke-width:0.00909091;stroke-miterlimit:4;stroke-opacity:1;stroke-dasharray:none"
           d="m 73.464083,0.105697 c -0.335165,-0.410279 -1.336375,-1.832378 -2.224911,-3.160223 -0.888536,-1.327845 -1.849176,-2.687972 -2.134754,-3.022505 -0.630321,-0.738371 -1.481224,-1.393255 -2.86886,-2.207974 -1.187547,-0.697241 -2.266903,-1.423952 -2.503902,-1.685833 -0.555526,-0.613849 1.358377,0.346641 3.566494,1.789841 1.767488,1.15521 2.311649,1.770133 4.564597,5.158178 1.675948,2.520336 2.372811,3.64398 2.372811,3.825998 0,0.170471 -0.238784,-0.04541 -0.771475,-0.697482 z"
           id="path5521"
           inkscape:connector-curvature="0" />
        <path
           style="fill:#00ff00;fill-opacity:1;stroke:#00ff00;stroke-width:0.00909091;stroke-miterlimit:4;stroke-opacity:1;stroke-dasharray:none"
           d="m 86.92808,-0.648344 c -0.141277,-0.3 -0.377098,-0.847527 -0.524047,-1.216727 -0.410225,-1.030658 -1.048036,-2.300017 -1.570891,-3.126358 -0.821394,-1.298162 -3.015115,-4.108259 -3.412365,-4.371147 -0.377106,-0.249557 -0.505424,-0.60395 -0.218677,-0.60395 0.429317,0 1.216467,0.789282 2.536268,2.543137 0.931619,1.238009 1.613551,2.329769 2.393141,3.831373 0.778218,1.498962 1.124737,2.478754 1.08347,3.063544 l -0.03003,0.425582 -0.256866,-0.545454 0,0 z"
           id="path5523"
           inkscape:connector-curvature="0" />
      </g>
    </g>
  </g>
</svg>
