<?xml version="1.0" encoding="UTF-8" standalone="no"?>
<!-- Generator: Adobe Illustrator 16.0.4, SVG Export Plug-In . SVG Version: 6.00 Build 0)  -->

<svg
   xmlns:dc="http://purl.org/dc/elements/1.1/"
   xmlns:cc="http://creativecommons.org/ns#"
   xmlns:rdf="http://www.w3.org/1999/02/22-rdf-syntax-ns#"
   xmlns:svg="http://www.w3.org/2000/svg"
   xmlns="http://www.w3.org/2000/svg"
   xmlns:sodipodi="http://sodipodi.sourceforge.net/DTD/sodipodi-0.dtd"
   xmlns:inkscape="http://www.inkscape.org/namespaces/inkscape"
   version="1.1"
   id="xerus_artwork_-_0.8mm"
   x="0px"
   y="0px"
   width="850.394px"
   height="850.382px"
   viewBox="0 0 850.394 850.382"
   enable-background="new 0 0 850.394 850.382"
   xml:space="preserve"
   inkscape:version="0.91 r13725"
   sodipodi:docname="os_xenial-1.svg"><metadata
     id="metadata45"><rdf:RDF><cc:Work
         rdf:about=""><dc:format>image/svg+xml</dc:format><dc:type
           rdf:resource="http://purl.org/dc/dcmitype/StillImage" /><dc:title></dc:title></cc:Work></rdf:RDF></metadata><defs
     id="defs43"><filter
       style="color-interpolation-filters:sRGB;"
       inkscape:label="Drop Shadow"
       id="filter3715"><feFlood
         flood-opacity="0.498039"
         flood-color="rgb(0,0,0)"
         result="flood"
         id="feFlood3717" /><feComposite
         in="flood"
         in2="SourceGraphic"
         operator="in"
         result="composite1"
         id="feComposite3719" /><feGaussianBlur
         in="composite1"
         stdDeviation="5"
         result="blur"
         id="feGaussianBlur3721" /><feOffset
         dx="8"
         dy="8"
         result="offset"
         id="feOffset3723" /><feComposite
         in="SourceGraphic"
         in2="offset"
         operator="over"
         result="composite2"
         id="feComposite3725" /></filter></defs><sodipodi:namedview
     pagecolor="#ffffff"
     bordercolor="#666666"
     borderopacity="1"
     objecttolerance="10"
     gridtolerance="10"
     guidetolerance="10"
     inkscape:pageopacity="0"
     inkscape:pageshadow="2"
     inkscape:window-width="984"
     inkscape:window-height="828"
     id="namedview41"
     showgrid="false"
     inkscape:zoom="0.55504466"
     inkscape:cx="425.19699"
     inkscape:cy="425.19101"
     inkscape:window-x="0"
     inkscape:window-y="0"
     inkscape:window-maximized="0"
     inkscape:current-layer="xerus_artwork_-_0.8mm" /><g
     id="g3"
     inkscape:export-xdpi="15.606762"
     inkscape:export-ydpi="15.606762"
     style="filter:url(#filter3715)"><path
       d="M217.396,291.244c0.011-0.013,0.027-0.018,0.039-0.03c0.013-0.014,0.017-0.033,0.031-0.046   c0.062-0.062,0.138-0.094,0.209-0.139c0.048-0.03,0.087-0.07,0.139-0.092c0.142-0.062,0.292-0.098,0.445-0.099   c0.003,0,0.006-0.002,0.009-0.002h45.356c0.135,0,0.265,0.03,0.39,0.076c0.037,0.014,0.07,0.035,0.106,0.053   c0.054,0.027,0.112,0.046,0.163,0.082l37.559,26.828l-6.119-46.357l-20.255,10.127c-0.4,0.199-0.879,0.146-1.225-0.137   l-61.617-50.414l-94.75,83.604l43.628,43.627L217.396,291.244z"
       id="path5"
       fill="#E95420" /><polygon
       points="260.885,293.103 221.004,293.103 240.943,313.042  "
       id="polygon7"
       fill="#E95420" /><polygon
       points="318.478,257.605 291.5,230.741 215.773,230.741 275.11,279.288  "
       id="polygon9"
       fill="#E95420" /><path
       d="M164.004,358.867h110.372l27.349-38.288l-37.979-27.128l-22,21.998c-0.221,0.221-0.512,0.332-0.802,0.332   s-0.581-0.111-0.802-0.332l-21.799-21.799L164.004,358.867z"
       id="path11"
       fill="#E95420" /><polygon
       points="553.209,258.803 623.557,289.468 512.583,111.911 346.134,167.393 553.209,258.803  "
       id="polygon13"
       fill="#E95420" /><path
       d="M627.589,292.032L616.27,495.749l43.275,64.91l22.441-370.295l-61.74-61.741L515.351,112.06   l112.068,179.308C627.543,291.567,627.603,291.798,627.589,292.032z"
       id="path15"
       fill="#E95420" /><path
       d="M387.213,327.066l-72.846-16.895c-0.016-0.003-0.027-0.014-0.042-0.019   c-0.09-0.025-0.173-0.065-0.254-0.111c-0.032-0.019-0.069-0.03-0.099-0.051c-0.202-0.142-0.36-0.348-0.436-0.603l-12-40.776   l-3.668,1.834l6.563,49.722c0.007,0.056-0.01,0.106-0.011,0.161c-0.001,0.088,0.003,0.174-0.018,0.261   c-0.021,0.083-0.064,0.155-0.103,0.23c-0.026,0.051-0.035,0.107-0.069,0.155l-28.193,39.47l-5.318,31.907l116.495-38.838V327.066z"
       id="path17"
       fill="#E95420" /><polygon
       points="314.12,303.34 318.958,259.9 303.597,267.58  "
       id="polygon19"
       fill="#E95420" /><polygon
       points="608.655,466.482 608.656,466.486 608.657,466.489 614.391,488.709 625.282,292.694    554.453,261.819  "
       id="polygon21"
       fill="#E95420" /><polygon
       points="385.498,324.341 321.194,260.31 315.861,308.19  "
       id="polygon23"
       fill="#E95420" /><path
       d="M614.174,496.692c-0.07-0.105-0.123-0.223-0.154-0.346l-6.358-24.642l-7.494,34.973L571.18,653.485   l43.214-5.403l44.76-83.923L614.174,496.692z"
       id="path25"
       fill="#E95420" /><path
       d="M512.894,441.151L389.518,564.527l8.463,108.14h-0.006c0.001,0.01,0.007,0.018,0.008,0.027l0.944,16.998   l1.752,20.154l106.279-44.748c0.004-0.002,0.007-0.001,0.011-0.002c0.004-0.002,0.008-0.005,0.012-0.007l27.745-11.098   l22.512-146.327L512.894,441.151z"
       id="path27"
       fill="#E95420" /><polygon
       points="559.402,508.513 537.51,650.811 569.573,649.921 597.669,507.623  "
       id="polygon29"
       fill="#E95420" /><path
       d="M386.228,356.232l-116.563,38.861c-0.011,0.003-0.022,0.002-0.033,0.005l-126.9,44.139l149.534,40.615   c0,0,0.001,0,0.001,0.001c0.001,0,0.003,0,0.004,0l33.084,9.189L386.228,356.232z"
       id="path31"
       fill="#E95420" /><path
       d="M699.077,207.453l-14.947-14.947l-22.524,371.657l-0.01-0.001c-0.01,0.16-0.044,0.319-0.122,0.466   l-39.74,74.513l111.26-137.75L699.077,207.453z"
       id="path33"
       fill="#E95420" /><polygon
       points="495.139,738.388 505.972,667.974 403.057,711.305  "
       id="polygon35"
       fill="#E95420" /><path
       d="M387.216,564.183c-0.026-0.331,0.094-0.656,0.329-0.891l123.756-123.756l-122.483-83.512l-61.804,134.842   c-0.188,0.411-0.597,0.661-1.031,0.661c-0.101,0-0.203-0.014-0.303-0.041l-31.43-8.73l101.058,184.815L387.216,564.183z"
       id="path37"
       fill="#E95420" /><path
       d="M399.336,712.569c-0.082-0.026-0.162-0.058-0.237-0.103c-0.033-0.021-0.06-0.048-0.091-0.07   c-0.023-0.018-0.045-0.033-0.066-0.052c-0.095-0.083-0.175-0.179-0.237-0.286c-0.012-0.021-0.019-0.042-0.029-0.063   c-0.052-0.105-0.089-0.217-0.106-0.335c-0.002-0.017-0.008-0.031-0.01-0.048c0-0.006-0.003-0.012-0.003-0.018l-1.745-20.069   l-94.369,47.184h185.748l-88.824-26.125C399.354,712.581,399.347,712.572,399.336,712.569z"
       id="path39"
       fill="#E95420" /></g></svg>