<?xml version="1.0" encoding="UTF-8" standalone="no"?>
<!-- Created with Inkscape (http://www.inkscape.org/) -->

<svg
   xmlns:dc="http://purl.org/dc/elements/1.1/"
   xmlns:cc="http://creativecommons.org/ns#"
   xmlns:rdf="http://www.w3.org/1999/02/22-rdf-syntax-ns#"
   xmlns:svg="http://www.w3.org/2000/svg"
   xmlns="http://www.w3.org/2000/svg"
   xmlns:sodipodi="http://sodipodi.sourceforge.net/DTD/sodipodi-0.dtd"
   xmlns:inkscape="http://www.inkscape.org/namespaces/inkscape"
   width="128"
   height="128"
   id="svg2"
   version="1.1"
   inkscape:version="0.48.4 r9939"
   sodipodi:docname="tool_rescue-01-basic.svg">
  <defs
     id="defs4">
    <filter
       id="filter4020"
       style="color-interpolation-filters:sRGB;"
       inkscape:label="Drop Shadow">
      <feFlood
         id="feFlood4022"
         flood-opacity="0.7"
         flood-color="rgb(0,0,0)"
         result="flood" />
      <feComposite
         id="feComposite4024"
         in2="SourceGraphic"
         in="flood"
         operator="in"
         result="composite1" />
      <feGaussianBlur
         id="feGaussianBlur4026"
         in="composite"
         stdDeviation="3"
         result="blur" />
      <feOffset
         id="feOffset4028"
         dx="3"
         dy="3"
         result="offset" />
      <feComposite
         id="feComposite4030"
         in2="offset"
         in="SourceGraphic"
         operator="over"
         result="composite2" />
    </filter>
  </defs>
  <sodipodi:namedview
     id="base"
     pagecolor="#ffffff"
     bordercolor="#666666"
     borderopacity="1.0"
     inkscape:pageopacity="0.0"
     inkscape:pageshadow="2"
     inkscape:zoom="5.6568542"
     inkscape:cx="58.736442"
     inkscape:cy="77.681088"
     inkscape:document-units="px"
     inkscape:current-layer="layer1"
     showgrid="false"
     inkscape:window-width="1258"
     inkscape:window-height="864"
     inkscape:window-x="56"
     inkscape:window-y="55"
     inkscape:window-maximized="0" />
  <metadata
     id="metadata7">
    <rdf:RDF>
      <cc:Work
         rdf:about="">
        <dc:format>image/svg+xml</dc:format>
        <dc:type
           rdf:resource="http://purl.org/dc/dcmitype/StillImage" />
        <dc:title></dc:title>
      </cc:Work>
    </rdf:RDF>
  </metadata>
  <g
     inkscape:label="Layer 1"
     inkscape:groupmode="layer"
     id="layer1"
     transform="translate(0,-924.36218)">
    <g
       id="g3984"
       style="filter:url(#filter4020)">
      <path
         transform="matrix(1.2248505,0,0,1.4364973,92.650547,1024.9643)"
         d="m 94.449261,47.440334 a 40.279831,34.345188 0 1 1 -80.559662,0 40.279831,34.345188 0 1 1 80.559662,0 z"
         sodipodi:ry="34.345188"
         sodipodi:rx="40.279831"
         sodipodi:cy="47.440334"
         sodipodi:cx="54.16943"
         id="path2985-3"
         style="fill:#ffffff;fill-opacity:1;stroke:#000000;stroke-width:1;stroke-miterlimit:4;stroke-opacity:1;stroke-dasharray:none"
         sodipodi:type="arc" />
      <path
         sodipodi:end="0.57850209"
         sodipodi:start="0"
         transform="matrix(0.99677979,0,0,1.1202746,69.370944,858.30292)"
         d="m 124,70.125 a 47.625,42.375 0 0 1 -7.74942,23.169395 L 76.375,70.125 z"
         sodipodi:ry="42.375"
         sodipodi:rx="47.625"
         sodipodi:cy="70.125"
         sodipodi:cx="76.375"
         id="path3821"
         style="fill:#ffffff;fill-opacity:1;stroke:#000000;stroke-width:1;stroke-miterlimit:4;stroke-opacity:1;stroke-dasharray:none"
         sodipodi:type="arc" />
      <path
         sodipodi:end="0.59507843"
         sodipodi:start="0"
         transform="matrix(1.0556593,0,0,1.0160721,83.499721,975.2974)"
         d="M 98.5,66.25 A 28.875,30 0 0 1 93.536518,83.067211 L 69.625,66.25 z"
         sodipodi:ry="30"
         sodipodi:rx="28.875"
         sodipodi:cy="66.25"
         sodipodi:cx="69.625"
         id="path3823"
         style="fill:#00ff00;fill-opacity:1;stroke:#000000;stroke-width:1;stroke-miterlimit:4;stroke-opacity:1;stroke-dasharray:none"
         sodipodi:type="arc" />
      <path
         transform="translate(0,924.36218)"
         inkscape:connector-curvature="0"
         id="path3908"
         d="m 98.024003,108.3486 c 0.02026,-0.0183 0.445928,-0.35777 0.945938,-0.75447 3.827129,-3.03642 7.724779,-7.16906 10.636079,-11.277357 5.25842,-7.420433 8.62213,-15.996743 9.79337,-24.969708 0.61138,-4.683752 0.61236,-10.003194 0.003,-14.672466 -1.54864,-11.861138 -6.8758,-22.88873 -15.23228,-31.531853 l -0.96206,-0.995059 0.82236,0 0.82236,0 0.76686,0.817592 c 8.28714,8.835403 13.56701,20.091397 15.01907,32.018679 0.31201,2.562911 0.39435,4.030002 0.39435,7.026874 0,3.122855 -0.0854,4.550961 -0.43576,7.292039 -1.7731,13.869856 -8.60863,26.60499 -19.22163,35.811449 l -1.458403,1.26512 -0.964906,10e-4 c -0.530699,6.2e-4 -0.948333,-0.0138 -0.928078,-0.032 l 0,1e-5 z"
         style="fill:#ffffff;fill-opacity:1;stroke:#ffffff;stroke-width:0.01767767;stroke-miterlimit:4;stroke-opacity:1;stroke-dasharray:none" />
      <path
         transform="translate(0,924.36218)"
         inkscape:connector-curvature="0"
         id="path3910"
         d="M 59.746269,120.86486 C 44.269516,119.69656 29.344389,111.80981 19.621564,99.662134 7.3819223,84.369949 3.820095,64.517657 9.9916105,45.988369 14.061235,33.769774 22.21588,23.218118 32.996269,16.221621 c 12.68992,-8.2357891 28.16082,-11.0892259 43,-7.9308762 12.091587,2.5735562 23.598875,9.4968762 31.549751,18.9817962 12.84135,15.318978 16.79155,36.003608 10.45855,54.764593 -2.12403,6.292253 -4.65565,11.08632 -8.69274,16.461245 C 97.969404,113.5995 78.698494,122.29551 59.746269,120.86486 z m 12.25,-1.4763 c 16.067732,-2.37398 30.057411,-11.33592 38.988471,-24.976426 1.96034,-2.99404 4.78551,-8.871845 5.95333,-12.385957 2.15687,-6.49031 2.91056,-11.150788 2.90918,-17.989043 -0.002,-9.04369 -1.74171,-16.675285 -5.61411,-24.625 C 108.83814,28.336615 99.703541,19.180902 88.661659,13.781542 63.386624,1.4223246 32.998891,9.6303756 17.373869,33.037134 12.897615,39.742699 9.8905683,47.621074 8.5817695,56.072182 7.9730291,60.002907 7.97497,68.083372 8.5855995,72.028222 12.68001,98.479232 33.552973,117.76837 60.371266,119.88442 c 2.296075,0.18117 8.969227,-0.10347 11.625,-0.49586 z"
         style="fill:#000000;fill-opacity:1;stroke:#ffffff;stroke-width:0.05;stroke-miterlimit:4;stroke-opacity:1;stroke-dasharray:none" />
      <path
         inkscape:connector-curvature="0"
         id="path3950"
         d="m 79.017061,944.17252 c -2.039604,-0.23009 -3.855702,-1.49266 -4.810619,-3.34441 -0.552641,-1.07167 -0.6666,-1.56349 -0.667115,-2.87913 -4.01e-4,-1.02664 0.02561,-1.22438 0.244139,-1.85616 0.768074,-2.22051 2.514105,-3.76829 4.786376,-4.24292 1.089731,-0.22762 2.291346,-0.11521 3.465826,0.32422 1.71642,0.64219 3.262053,2.41201 3.740611,4.28315 0.212671,0.83153 0.228725,2.13143 0.03643,2.95011 -0.175827,0.7486 -0.722039,1.85836 -1.228619,2.49625 -1.277915,1.60915 -3.475574,2.50483 -5.567034,2.26889 z m 1.76249,-1.27419 c 1.805073,-0.37898 3.291066,-1.7583 3.808524,-3.53514 0.22681,-0.77882 0.213524,-2.04318 -0.02972,-2.82843 -0.644003,-2.07897 -2.374741,-3.43643 -4.530102,-3.55308 -2.263397,-0.1225 -4.152797,1.08745 -4.996231,3.19953 -0.324107,0.81161 -0.403728,2.17628 -0.177504,3.04233 0.691821,2.64848 3.251597,4.23609 5.925036,3.67479 z"
         style="fill:#000000;fill-opacity:1;stroke:#000000;stroke-width:0.01767767;stroke-miterlimit:4;stroke-opacity:1;stroke-dasharray:none" />
      <path
         inkscape:connector-curvature="0"
         id="path3950-8"
         d="m 113.64843,1009.7718 c -2.03961,-0.2301 -3.85571,-1.4926 -4.81062,-3.3444 -0.55264,-1.0717 -0.6666,-1.5635 -0.66712,-2.8791 -4e-4,-1.0267 0.0256,-1.2244 0.24414,-1.8562 0.76807,-2.2205 2.51411,-3.76828 4.78638,-4.24291 1.08973,-0.22762 2.29134,-0.11521 3.46582,0.32422 1.71642,0.64219 3.26205,2.41199 3.74061,4.28319 0.21267,0.8315 0.22873,2.1314 0.0364,2.9501 -0.17582,0.7486 -0.72204,1.8583 -1.22862,2.4962 -1.27791,1.6092 -3.47557,2.5049 -5.56703,2.2689 z m 1.76249,-1.2742 c 1.80507,-0.379 3.29106,-1.7583 3.80852,-3.5351 0.22681,-0.7788 0.21352,-2.0432 -0.0297,-2.8284 -0.644,-2.079 -2.37474,-3.43648 -4.5301,-3.55313 -2.2634,-0.1225 -4.1528,1.08745 -4.99623,3.19953 -0.32411,0.8116 -0.40373,2.1763 -0.17751,3.0423 0.69182,2.6485 3.2516,4.2361 5.92504,3.6748 z"
         style="fill:#000000;fill-opacity:1;stroke:#000000;stroke-width:0.01767767;stroke-miterlimit:4;stroke-opacity:1;stroke-dasharray:none" />
      <path
         inkscape:connector-curvature="0"
         id="path3950-3"
         d="m 13.416039,977.2449 c -2.039604,-0.23009 -3.8557017,-1.49266 -4.8106187,-3.34441 -0.552641,-1.07167 -0.6666,-1.56349 -0.667115,-2.87913 -4.01e-4,-1.02664 0.02561,-1.22438 0.244139,-1.85616 0.768074,-2.22051 2.5141047,-3.76829 4.7863757,-4.24292 1.089731,-0.22762 2.291346,-0.11521 3.465826,0.32422 1.716419,0.64219 3.262052,2.41201 3.74061,4.28315 0.212671,0.83153 0.228725,2.13143 0.03643,2.95011 -0.175827,0.7486 -0.722039,1.85836 -1.228619,2.49625 -1.277914,1.60915 -3.475573,2.50483 -5.567033,2.26889 z m 1.76249,-1.27419 c 1.805073,-0.37898 3.291065,-1.7583 3.808523,-3.53514 0.22681,-0.77882 0.213524,-2.04318 -0.02972,-2.82843 -0.644003,-2.07897 -2.37474,-3.43643 -4.530101,-3.55308 -2.263397,-0.1225 -4.152797,1.08745 -4.9962307,3.19953 -0.324107,0.81161 -0.403728,2.17628 -0.177504,3.04233 0.691821,2.64848 3.2515967,4.23609 5.9250357,3.67479 z"
         style="fill:#000000;fill-opacity:1;stroke:#000000;stroke-width:0.01767767;stroke-miterlimit:4;stroke-opacity:1;stroke-dasharray:none" />
      <path
         inkscape:connector-curvature="0"
         id="path3950-9"
         d="m 47.180387,1044.42 c -2.039604,-0.23 -3.855702,-1.4926 -4.810619,-3.3444 -0.552641,-1.0716 -0.6666,-1.5635 -0.667115,-2.8791 -4.01e-4,-1.0266 0.02561,-1.2244 0.244139,-1.8562 0.768074,-2.2205 2.514105,-3.7682 4.786376,-4.2429 1.089731,-0.2276 2.291346,-0.1152 3.465826,0.3242 1.71642,0.6422 3.262053,2.4121 3.740611,4.2832 0.212671,0.8315 0.228725,2.1314 0.03643,2.9501 -0.175827,0.7486 -0.722039,1.8584 -1.228619,2.4963 -1.277915,1.6091 -3.475574,2.5048 -5.567034,2.2688 z m 1.76249,-1.2741 c 1.805073,-0.379 3.291066,-1.7583 3.808524,-3.5352 0.22681,-0.7788 0.213524,-2.0432 -0.02972,-2.8284 -0.644003,-2.079 -2.374741,-3.4364 -4.530102,-3.5531 -2.263397,-0.1225 -4.152797,1.0875 -4.996231,3.1995 -0.324107,0.8116 -0.403728,2.1763 -0.177504,3.0424 0.691821,2.6484 3.251597,4.2361 5.925036,3.6748 z"
         style="fill:#000000;fill-opacity:1;stroke:#000000;stroke-width:0.01767767;stroke-miterlimit:4;stroke-opacity:1;stroke-dasharray:none" />
      <g
         id="g3883">
        <path
           style="fill:#ff6600;fill-opacity:1;stroke:#ff6600;stroke-width:0.25;stroke-miterlimit:4;stroke-opacity:1;stroke-dasharray:none"
           d="m 58.825796,1036.3558 c -7.13374,-0.8237 -15.31012,-3.8196 -21.32741,-7.8145 -13.93838,-9.2537 -22.34958,-25.4869 -21.66992,-41.82188 0.82898,-19.92334 13.2809,-36.87427 32.16992,-43.79321 5.02534,-1.84075 10.01175,-2.68527 15.875,-2.68865 7.51891,-0.004 13.68968,1.34402 20.5,4.47936 12.69528,5.84466 22.888104,18.14664 26.353914,31.80724 4.17405,16.45216 -0.58961,33.60534 -12.728644,45.83374 -8.84111,8.9063 -20.3463,13.8055 -33.12527,14.1056 -2.3375,0.055 -5.05891,0.01 -6.04759,-0.1077 l 0,0 z m 11.54759,-18.3567 c 11.61583,-2.5315 20.6114,-11.4981 23.29842,-23.22328 0.58133,-2.5368 0.58133,-10.326 0,-12.86268 -2.4358,-10.62899 -10.25593,-19.24828 -20.33165,-22.40937 -3.77762,-1.18517 -4.52096,-1.2849 -9.46677,-1.27003 -5.30152,0.0159 -7.17681,0.35065 -11.3178,2.02007 -9.75903,3.9343 -16.87875,12.94281 -18.44607,23.33961 -0.94935,6.2976 0.0844,13.0011 2.8279,18.33828 3.17118,6.1692 7.54734,10.5177 13.68597,13.5993 3.05142,1.5319 6.38944,2.4712 10.375,2.9196 1.78781,0.2012 7.68316,-0.083 9.375,-0.4515 l 0,0 z"
           id="path3819"
           inkscape:connector-curvature="0" />
        <path
           style="fill:#ffffff;fill-opacity:1;stroke:#ffffff;stroke-width:0.25000000000000000;stroke-miterlimit:4;stroke-opacity:1;stroke-dasharray:none"
           d="m 100.87127,1012.1422 c -1.375,-0.9095 -4.27177,-2.8071 -6.43726,-4.217 l -3.93727,-2.5634 1.22464,-2.4359 c 1.91042,-3.79993 3.27489,-8.83867 3.27489,-12.0936 l 0,-1.21726 7.91258,0 7.91258,0 -0.16005,2.44222 c -0.39094,5.96543 -2.08431,12.07724 -4.91389,17.73554 -0.96743,1.9346 -1.89786,3.6267 -2.0676,3.7603 -0.21726,0.1709 -1.04866,-0.2467 -2.80862,-1.4109 z"
           id="path3827"
           inkscape:connector-curvature="0" />
        <path
           style="fill:#ffffff;fill-opacity:1;stroke:#ffffff;stroke-width:0.25000000000000000;stroke-miterlimit:4;stroke-opacity:1;stroke-dasharray:none"
           d="m 40.71027,1025.3243 c 0.9095,-1.375 2.8071,-4.2717 4.217,-6.4372 l 2.5634,-3.9373 2.4359,1.2247 c 3.7999,1.9104 8.83864,3.2748 12.09357,3.2748 l 1.21726,0 0,7.9126 0,7.9126 -2.44222,-0.16 c -5.96541,-0.391 -12.07721,-2.0844 -17.73551,-4.9139 -1.9346,-0.9675 -3.6267,-1.8979 -3.7603,-2.0676 -0.1709,-0.2173 0.2467,-1.0487 1.4109,-2.8087 z"
           id="path3827-9"
           inkscape:connector-curvature="0" />
        <path
           style="fill:#ffffff;fill-opacity:1;stroke:#ffffff;stroke-width:0.25000000000000000;stroke-miterlimit:4;stroke-opacity:1;stroke-dasharray:none"
           d="m 26.53785,965.8224 c 1.375,0.9095 4.2717,2.8071 6.4372,4.217 l 3.9373,2.5634 -1.2247,2.4359 c -1.9104,3.7999 -3.2748,8.8387 -3.2748,12.0936 l 0,1.2172 -7.9126,0 -7.9126,0 0.16,-2.4422 c 0.391,-5.9654 2.0844,-12.0772 4.9139,-17.7355 0.9675,-1.9346 1.8979,-3.6267 2.0676,-3.7603 0.2173,-0.1709 1.0487,0.2467 2.8087,1.4109 z"
           id="path3827-9-4"
           inkscape:connector-curvature="0" />
        <path
           style="fill:#ffffff;fill-opacity:1;stroke:#ffffff;stroke-width:0.25000000000000000;stroke-miterlimit:4;stroke-opacity:1;stroke-dasharray:none"
           d="m 87.039724,951.40003 c -0.9095,1.375 -2.8071,4.2717 -4.217,6.4372 l -2.5634,3.9373 -2.4359,-1.2247 c -3.7999,-1.9104 -8.8387,-3.2748 -12.0936,-3.2748 l -1.2172,0 0,-7.9126 0,-7.9126 2.4422,0.16 c 5.9654,0.391 12.0772,2.0844 17.7355,4.9139 1.9346,0.9675 3.6267,1.8979 3.7603,2.0676 0.1709,0.2173 -0.2467,1.0487 -1.4109,2.8087 z"
           id="path3827-9-4-1"
           inkscape:connector-curvature="0" />
      </g>
    </g>
  </g>
</svg>
